{
  "asset": {
    "generator": "Khronos glTF Blender I/O v1.7.33",
    "version": "2.0"
  },
  "scene": 0,
  "scenes": [
    {
      "name": "Scene",
      "nodes": [
        0
      ]
    }
  ],
  "nodes": [
    {
      "mesh": 0,
      "name": "sphere_gltf"
    }
  ],
  "materials": [
    {
      "doubleSided": true,
      "name": "patterned_clay_wall",
      "normalTexture": {
        "index": 0
      },
      "pbrMetallicRoughness": {
        "baseColorTexture": {
          "index": 1
        },
        "metallicFactor": 0,
        "metallicRoughnessTexture": {
          "index": 2
        }
      }
    }
  ],
  "meshes": [
    {
      "name": "Sphere.001",
      "primitives": [
        {
          "attributes": {
            "POSITION": 0,
            "NORMAL": 1,
            "TEXCOORD_0": 2
          },
          "indices": 3,
          "material": 0
        }
      ]
    }
  ],
  "textures": [
    {
      "sampler": 0,
      "source": 0
    },
    {
      "sampler": 0,
      "source": 1
    },
    {
      "sampler": 0,
      "source": 2
    }
  ],
  "images": [
    {
      "mimeType": "image/jpeg",
      "name": "patterned_clay_wall_nor_gl_8k",
      "uri": "textures/patterned_clay_wall_nor_gl_2k.jpg"
    },
    {
      "mimeType": "image/jpeg",
      "name": "patterned_clay_wall_diff_8k",
      "uri": "textures/patterned_clay_wall_diff_2k.jpg"
    },
    {
      "mimeType": "image/jpeg",
      "name": "patterned_clay_wall_rough_8k",
      "uri": "textures/patterned_clay_wall_rough_2k.jpg"
    }
  ],
  "accessors": [
    {
      "bufferView": 0,
      "componentType": 5126,
      "count": 53905,
      "max": [
        0.6259588003158569,
        0.6261847615242004,
        0.6260215640068054
      ],
      "min": [
        -0.625959038734436,
        -0.6264247298240662,
        -0.6260083317756653
      ],
      "type": "VEC3"
    },
    {
      "bufferView": 1,
      "componentType": 5126,
      "count": 53905,
      "type": "VEC3"
    },
    {
      "bufferView": 2,
      "componentType": 5126,
      "count": 53905,
      "type": "VEC2"
    },
    {
      "bufferView": 3,
      "componentType": 5123,
      "count": 322170,
      "type": "SCALAR"
    }
  ],
  "bufferViews": [
    {
      "buffer": 0,
      "byteLength": 646860,
      "byteOffset": 0
    },
    {
      "buffer": 0,
      "byteLength": 646860,
      "byteOffset": 646860
    },
    {
      "buffer": 0,
      "byteLength": 431240,
      "byteOffset": 1293720
    },
    {
      "buffer": 0,
      "byteLength": 644340,
      "byteOffset": 1724960
    }
  ],
  "samplers": [
    {
      "magFilter": 9729,
      "minFilter": 9987
    }
  ],
  "buffers": [
    {
      "byteLength": 2369300,
      "uri": "patterned_clay_wall.bin"
    }
  ]
}